<?xml version="1.0" encoding="UTF-8" standalone="no"?>
<!DOCTYPE svg PUBLIC "-//W3C//DTD SVG 1.1//EN"
 "http://www.w3.org/Graphics/SVG/1.1/DTD/svg11.dtd">
<!-- Generated by graphviz version 2.26.3 (20100126.1600)
 -->
<!-- Title: G Pages: 1 -->
<svg width="460pt" height="260pt"
 viewBox="0.00 0.00 460.00 260.00" xmlns="http://www.w3.org/2000/svg" xmlns:xlink="http://www.w3.org/1999/xlink">
<g id="graph1" class="graph" transform="scale(1 1) rotate(0) translate(4 256)">
<title>G</title>
<polygon fill="white" stroke="white" points="-4,5 -4,-256 457,-256 457,5 -4,5"/>
<g id="graph2" class="cluster"><title>cluster_global</title>
<polyline fill="none" stroke="gray" points="152,-8 432,-8 "/>
<path fill="none" stroke="gray" d="M432,-8C438,-8 444,-14 444,-20"/>
<polyline fill="none" stroke="gray" points="444,-20 444,-232 "/>
<path fill="none" stroke="gray" d="M444,-232C444,-238 438,-244 432,-244"/>
<polyline fill="none" stroke="gray" points="432,-244 152,-244 "/>
<path fill="none" stroke="gray" d="M152,-244C146,-244 140,-238 140,-232"/>
<polyline fill="none" stroke="gray" points="140,-232 140,-20 "/>
<path fill="none" stroke="gray" d="M140,-20C140,-14 146,-8 152,-8"/>
<text text-anchor="middle" x="292" y="-230.1" font-family="Times Roman,serif" font-size="11.00" fill="gray">global</text>
</g>
<!-- \\PDOStatementCommon -->
<g id="node2" class="node"><title>\\PDOStatementCommon</title>
<a xlink:href="inc.PDOCommon.class.html" xlink:title="PDOStatementCommon" target="_parent">
<polygon fill="none" stroke="black" points="436,-214 298,-214 298,-178 436,-178 436,-214"/>
<text text-anchor="middle" x="367" y="-193.1" font-family="Courier,monospace" font-size="11.00">PDOStatementCommon</text>
</a>
</g>
<!-- \\PDOCommon -->
<g id="node3" class="node"><title>\\PDOCommon</title>
<a xlink:href="inc.PDOCommon.class.html" xlink:title="PDOCommon" target="_parent">
<polygon fill="none" stroke="black" points="225,-52 149,-52 149,-16 225,-16 225,-52"/>
<text text-anchor="middle" x="187" y="-31.1" font-family="Courier,monospace" font-size="11.00">PDOCommon</text>
</a>
</g>
<!-- \\PDO -->
<g id="node8" class="node"><title>\\PDO</title>
<ellipse fill="none" stroke="black" cx="38" cy="-34" rx="36.977" ry="18.3848"/>
<text text-anchor="middle" x="38" y="-30.4" font-family="Times Roman,serif" font-size="14.00" fill="gray">\PDO</text>
</g>
<!-- \\PDOCommon&#45;&gt;\\PDO -->
<g id="edge3" class="edge"><title>\\PDOCommon&#45;&gt;\\PDO</title>
<path fill="none" stroke="black" d="M148.241,-34C129.15,-34 105.955,-34 85.7758,-34"/>
<polygon fill="none" stroke="black" points="85.5359,-30.5001 75.5359,-34 85.5358,-37.5001 85.5359,-30.5001"/>
</g>
<!-- \\PEAR -->
<g id="node4" class="node"><title>\\PEAR</title>
<a xlink:href="inc.PDOLayer.html" xlink:title="PEAR" target="_parent">
<polygon fill="none" stroke="black" points="394,-160 340,-160 340,-124 394,-124 394,-160"/>
<text text-anchor="middle" x="367" y="-139.1" font-family="Courier,monospace" font-size="11.00">PEAR</text>
</a>
</g>
<!-- \\PDOExtended -->
<g id="node5" class="node"><title>\\PDOExtended</title>
<a xlink:href="inc.PDOLayer.html" xlink:title="PDOExtended" target="_parent">
<polygon fill="none" stroke="black" points="412,-106 322,-106 322,-70 412,-70 412,-106"/>
<text text-anchor="middle" x="367" y="-85.1" font-family="Courier,monospace" font-size="11.00">PDOExtended</text>
</a>
</g>
<!-- \\PDOLayer -->
<g id="node6" class="node"><title>\\PDOLayer</title>
<a xlink:href="inc.PDOLayer.html" xlink:title="PDOLayer" target="_parent">
<polygon fill="none" stroke="black" points="402,-52 332,-52 332,-16 402,-16 402,-52"/>
<text text-anchor="middle" x="367" y="-31.1" font-family="Courier,monospace" font-size="11.00">PDOLayer</text>
</a>
</g>
<!-- \\PDOLayer&#45;&gt;\\PDOCommon -->
<g id="edge5" class="edge"><title>\\PDOLayer&#45;&gt;\\PDOCommon</title>
<path fill="none" stroke="black" d="M331.438,-34C304.126,-34 266.101,-34 235.921,-34"/>
<polygon fill="none" stroke="black" points="235.604,-30.5001 225.604,-34 235.604,-37.5001 235.604,-30.5001"/>
</g>
</g>
</svg>
